<svg width="48" height="48" viewBox="0 0 48 48" fill="none" xmlns="http://www.w3.org/2000/svg">
<g id="icon">
<g id="icon_2">
<mask id="mask0_4400_2487" style="mask-type:alpha" maskUnits="userSpaceOnUse" x="6" y="6" width="36" height="36">
<circle id="Ellipse 288" cx="24" cy="24" r="18" fill="#D9D9D9"/>
</mask>
<g mask="url(#mask0_4400_2487)">
<g id="Vector">
<path fill-rule="evenodd" clip-rule="evenodd" d="M20.4661 12.9915C17.2035 14.0473 13.7976 13.3902 11.221 11.5172C8.64676 14.1565 6.93865 17.5419 6.34691 21.1835C9.2375 22.2442 11.6287 24.5752 12.6503 27.7319C13.6718 30.8883 13.0998 34.1782 11.3788 36.7312C14.3154 39.6578 18.2048 41.4962 22.352 41.8913C23.6226 39.735 25.6566 38.0172 28.2251 37.186C30.8137 36.3483 33.4901 36.5585 35.7953 37.582C38.9597 34.8325 41.0601 31.0471 41.7353 26.9326C39.0094 25.7681 36.7829 23.475 35.7984 20.4333C34.7952 17.3332 35.2933 14.1073 36.8909 11.5424C34.2529 8.83557 30.8125 7.0253 27.0947 6.3798C26.1041 9.40739 23.7288 11.9356 20.4661 12.9915ZM28.0684 35.9088C33.8061 34.052 36.9522 27.8954 35.0954 22.1575C33.2386 16.4197 27.0819 13.2737 21.3441 15.1305C15.6063 16.9874 12.4602 23.144 14.3171 28.8818C16.174 34.6196 22.3306 37.7656 28.0684 35.9088Z" fill="#FF7172"/>
<path d="M26.9964 29.6013C26.7452 29.8405 26.4206 30.0244 26.0227 30.1533C25.6287 30.2807 25.2578 30.3219 24.9103 30.2764C24.5615 30.2271 24.2628 30.1019 24.014 29.9007C23.7642 29.6956 23.5849 29.4249 23.4761 29.0889C23.3648 28.7451 23.3517 28.4143 23.4366 28.0966C23.5243 27.7738 23.6943 27.4882 23.9469 27.2401C24.1982 26.988 24.5151 26.8001 24.8975 26.6763C25.2838 26.5513 25.6507 26.5179 25.9982 26.5762C26.3444 26.6306 26.6476 26.763 26.9078 26.9733C27.1666 27.1797 27.3517 27.4549 27.463 27.7987C27.5717 28.1347 27.583 28.4597 27.4968 28.7736C27.4132 29.0823 27.2464 29.3582 26.9964 29.6013Z" fill="#FF7172"/>
<path d="M25.1278 24.3612C24.9127 24.5802 24.639 24.7434 24.3069 24.8509C23.9746 24.9585 23.6572 24.9866 23.3546 24.9351C23.052 24.8836 22.7885 24.7618 22.5642 24.5699C22.3399 24.3779 22.1771 24.1254 22.0758 23.8124C21.9759 23.5034 21.9598 23.2098 22.0277 22.9317C22.0982 22.6486 22.2417 22.3995 22.458 22.1844C22.6731 21.9654 22.9486 21.8015 23.2848 21.6927C23.6247 21.5827 23.9441 21.5541 24.2428 21.6068C24.5404 21.6556 24.8006 21.7741 25.0237 21.9622C25.2455 22.1465 25.4064 22.3932 25.5064 22.7022C25.6076 23.0152 25.6237 23.3152 25.5544 23.6022C25.4851 23.8892 25.3429 24.1422 25.1278 24.3612Z" fill="#FF7172"/>
<path fill-rule="evenodd" clip-rule="evenodd" d="M27.4445 33.9786C32.1164 32.4668 34.678 27.4539 33.1661 22.782C31.6543 18.1101 26.6413 15.5485 21.9695 17.0604C17.2976 18.5722 14.7359 23.5852 16.2479 28.257C17.7597 32.9289 22.7726 35.4906 27.4445 33.9786ZM24.0968 32.3321C24.886 32.3969 25.7267 32.2849 26.619 31.996C27.5115 31.7073 28.2566 31.3061 28.8544 30.7925C29.4547 30.2739 29.8701 29.6978 30.1003 29.0642C30.3306 28.4305 30.3439 27.7925 30.1402 27.1499C29.9763 26.6566 29.7116 26.2408 29.346 25.9025C28.983 25.5591 28.5621 25.3133 28.0831 25.1653C27.6068 25.0121 27.1186 24.9738 26.6184 25.0504L26.5921 24.9692C27.1729 24.6404 27.5834 24.1683 27.8238 23.5528C28.0642 22.9372 28.0806 22.3024 27.8732 21.6482C27.6718 21.0391 27.3139 20.5531 26.7997 20.1904C26.2841 19.8237 25.6665 19.6033 24.9468 19.5289C24.2309 19.4532 23.4731 19.5448 22.6734 19.8036C21.8737 20.0624 21.204 20.4328 20.6643 20.9147C20.1273 21.3915 19.7573 21.9296 19.5542 22.5287C19.3499 23.124 19.3472 23.7288 19.546 24.343C19.7561 24.9921 20.1375 25.4981 20.6903 25.8613C21.2419 26.2205 21.8551 26.3614 22.53 26.2838L22.5561 26.365C22.0982 26.5985 21.7193 26.9175 21.4191 27.3219C21.1177 27.7225 20.9205 28.1683 20.8275 28.6592C20.7373 29.1451 20.7722 29.6353 20.9322 30.1298C21.1397 30.7711 21.5224 31.281 22.0802 31.6596C22.6381 32.0381 23.3102 32.2624 24.0968 32.3321Z" fill="#FF7172"/>
<path d="M-5.27819 33.5336C-3.83807 37.9838 0.936882 40.4238 5.38696 38.9837C9.837 37.5436 12.277 32.7687 10.837 28.3185C9.39681 23.8685 4.6219 21.4285 0.171824 22.8685C-4.27826 24.3087 -6.71831 29.0836 -5.27819 33.5336Z" fill="#FF7172"/>
<path d="M14.6462 -4.99421C10.3262 -3.59618 8.00872 1.19754 9.46999 5.71289C10.9312 10.2282 15.6178 12.7553 19.9378 11.3573C24.2578 9.9592 26.5752 5.16549 25.1141 0.650164C23.6528 -3.86516 18.9662 -6.39223 14.6462 -4.99421Z" fill="#FF7172"/>
<path d="M34.1547 55.5095C29.4662 57.0268 24.4733 54.5731 23.0028 50.029C21.5324 45.485 24.141 40.5714 28.8295 39.0542C33.5179 37.5368 38.5108 39.9905 39.9813 44.5345C41.4518 49.0786 38.8432 53.9923 34.1547 55.5095Z" fill="#FF7172"/>
<path d="M54.131 14.5006C55.6012 19.0439 53.1101 23.9189 48.5668 25.3891C44.0236 26.8593 39.1487 24.3682 37.6785 19.825C36.2081 15.2818 38.6993 10.4069 43.2425 8.93663C47.7858 7.4663 52.6607 9.95741 54.131 14.5006Z" fill="#FF7172"/>
</g>
</g>
</g>
</g>
</svg>
